<svg xmlns="http://www.w3.org/2000/svg" version="1.1" xmlns:xlink="http://www.w3.org/1999/xlink" xmlns:svgjs="http://svgjs.dev/svgjs" width="2000" height="1500" viewBox="0 0 2000 1500"><rect width="2000" height="1500" fill="#f2eeee"></rect><g transform="matrix(0.75,0,0,0.75,249.090909090909,520.601141854578)"><svg viewBox="0 0 396 121" data-background-color="#f2eeee" preserveAspectRatio="xMidYMid meet" height="611" width="2000" xmlns="http://www.w3.org/2000/svg" xmlns:xlink="http://www.w3.org/1999/xlink"><g id="tight-bounds" transform="matrix(1,0,0,1,0.2400000000000091,0.0723116979728502)"><svg viewBox="0 0 395.52 120.8553766040543" height="120.8553766040543" width="395.52"><g><svg viewBox="0 0 395.52 120.8553766040543" height="120.8553766040543" width="395.52"><g><svg viewBox="0 0 395.52 120.8553766040543" height="120.8553766040543" width="395.52"><g id="textblocktransform"><svg viewBox="0 0 395.52 120.8553766040543" height="120.8553766040543" width="395.52" id="textblock"><g><svg viewBox="0 0 395.52 120.8553766040543" height="120.8553766040543" width="395.52"><g transform="matrix(1,0,0,1,0,0)"><svg width="395.52" viewBox="2.17 -38.28 131.27 40.11" height="120.8553766040543" data-palette-color="#3949fd"><path d="M2.2-12.96L2.2-14.09 2.17-14.5Q2.17-16.02 2.91-16.92L2.91-16.92 25.44-25.42Q27.15-26.12 28.71-26.64L28.71-26.64 28.81-26.64Q29.17-26.64 29.17-24.95L29.17-24.95 29.17-24.66Q29.17-20.26 28.86-19.7L28.86-19.7Q22.36-17.24 11.33-12.79L11.33-12.79Q14.79-11.45 21.69-8.83 28.59-6.2 28.81-6.03L28.81-6.03Q29.27-5.64 29.27-3.5 29.27-1.37 29.08 0.24L29.08 0.24 29.08 0.29Q29.08 0.93 28.81 0.93L28.81 0.93Q28.78 0.93 28.54 0.88L28.54 0.88 5.15-8.33Q5.08-8.35 4.88-8.44 4.69-8.52 4.35-8.62L4.35-8.62Q3.64-8.84 2.91-9.34 2.17-9.84 2.17-11.04L2.17-11.04 2.17-12.45 2.2-12.96ZM28.93-26.71L28.69-26.64 28.69-27.15 28.86-27.17 28.93-26.71ZM47.34-21.04L46.43-21Q46.14-14.09 46.14-6.79L46.14-6.79 46.14 0.49 44.36 0.49 43.75 0.46 35.08 0.54Q34.25 0.54 34.2 0.56L34.2 0.56Q34.2 0.54 34.3 0.15L34.3 0.15 34.3 0 34.32-0.1Q34.2-1.86 34.2-4.37L34.2-4.37 34.3-31.64 34.27-32.91 34.27-34.13 34.23-36.43Q34.23-36.67 34.49-36.94L34.49-36.94 37.84-36.94 39.79-36.96Q46.68-36.96 49.64-36.77 52.61-36.57 53.9-36.57L53.9-36.57Q54.61-32.37 56-25.44L56-25.44 57.74-16.7 58.59-16.7 61.72-32.67Q61.79-33.03 62.06-34.8 62.33-36.57 62.47-36.77L62.47-36.77 62.57-36.77 78.46-36.91 79.42-36.89 82.15-36.89Q82.37-36.79 82.39-35.99L82.39-35.99 82.64-26.76Q82.93-15.28 83.05-8.89L83.05-8.89Q83.05-3.96 82.91 0.37L82.91 0.37Q82.83 0.66 81.93 0.71L81.93 0.71 80.83 0.76Q79.51 0.81 78.88 0.81L78.88 0.81 77.61 0.81Q75.24 0.83 70.63 0.83L70.63 0.83Q69.77 0.07 69.77-5.71L69.77-5.71 69.82-13.38 69.82-15.36Q69.82-17.97 69.8-19.21L69.8-19.21 68.87-19.38Q68.06-16.43 65.77-6.23L65.77-6.23 65.55-5.25Q65.38-4.49 64.98-2.55 64.57-0.61 64.33 0.39L64.33 0.39Q64.04 0.73 61.74 0.73L61.74 0.73 61.42 0.73 58.69 0.66 57.2 0.68 56.05 0.68 54.12 0.71 53.44 0.71Q52.32 0.71 52.19 0.2L52.19 0.2 52.22 0.22 50-9.47Q49.9-9.84 49.56-11.07 49.22-12.3 49.17-13.13L49.17-13.13 47.34-21.04ZM103.32-38.21L103.95-38.21 104.19-38.23Q105.22-38.23 105.22-37.96L105.22-37.96Q104.85-36.33 104.37-34.96L104.37-34.96 103.66-33.08Q101.48-26.78 99.26-20.04L99.26-20.04 98.73-18.51Q98.43-17.68 96.32-11.4 94.21-5.13 92.99-1.98L92.99-1.98 92.55-0.83 92.6-0.83Q91.89 1.12 90.77 1.49L90.77 1.49Q90.18 1.68 89.25 1.71L89.25 1.71 88.2 1.71Q87.28 1.83 85.57 1.83L85.57 1.83 84.32 1.83Q83.81 0.78 83.64 0.34L83.64 0.34Q84.17-1.42 84.32-1.56L84.32-1.56 85.79-5.59Q90.06-17.33 97.14-36.04L97.14-36.04 97.97-38.16Q98.38-38.28 99.92-38.28L99.92-38.28 103.32-38.21ZM106.71-20.58L106.71-20.58 106.73-20.83 106.73-21.56Q106.73-25.83 106.66-26.44L106.66-26.44Q106.95-26.22 116.98-22.46L116.98-22.46 119.69-21.44Q125.87-19.12 130.17-17.41L130.17-17.41 133.15-16.19Q133.44-15.55 133.44-12.73 133.44-9.91 133.39-9.86L133.39-9.86 133.12-9.62 133.05-9.55 133.12-9.55Q121.75-5.03 116.25-2.64L116.25-2.64 112.91-1.25Q108.85 0.42 107.12 1.03L107.12 1.03 106.36 0.2Q106.36-2.95 106.61-5.86L106.61-5.86Q106.97-6.69 117.13-10.45L117.13-10.45 117.91-10.77Q121.65-12.11 123.75-12.99L123.75-12.99Q121.87-13.75 116.68-15.95 111.49-18.16 106.8-19.82L106.8-19.82Q106.71-20.02 106.71-20.58ZM106.58-26.49L106.73-26.44 106.68-26.42Q106.63-26.42 106.58-26.49L106.58-26.49Z" opacity="1" transform="matrix(1,0,0,1,0,0)" fill="#3949fd" class="wordmark-text-0" data-fill-palette-color="primary" id="text-0"></path></svg></g></svg></g></svg></g></svg></g></svg></g><defs></defs></svg><rect width="395.52" height="120.8553766040543" fill="none" stroke="none" visibility="hidden"></rect></g></svg></g></svg>